<svg width="61" height="61" viewBox="0 0 61 61" fill="none" xmlns="http://www.w3.org/2000/svg">
<circle cx="30.5" cy="30.5" r="30.5" fill="#252A34"/>
<path d="M34 21C33.1716 21 32.5 21.6716 32.5 22.5C32.5 23.3284 33.1716 24 34 24H43C43.8285 24 44.5 23.3284 44.5 22.5C44.5 21.6716 43.8285 21 43 21H34Z" fill="#ffbc00"/>
<path d="M34 36C33.1716 36 32.5 36.6716 32.5 37.5C32.5 38.3284 33.1716 39 34 39H43C43.8285 39 44.5 38.3284 44.5 37.5C44.5 36.6716 43.8285 36 43 36H34Z" fill="#ffbc00"/>
<path d="M17.827 18.138C17.5 18.7798 17.5 19.6198 17.5 21.3V23.7C17.5 25.3801 17.5 26.2202 17.827 26.862C18.1146 27.4264 18.5735 27.8854 19.138 28.173C19.7798 28.5 20.6198 28.5 22.3 28.5H24.7C26.3802 28.5 27.2202 28.5 27.862 28.173C28.4264 27.8854 28.8854 27.4264 29.173 26.862C29.5 26.2202 29.5 25.3801 29.5 23.7V21.3C29.5 19.6198 29.5 18.7798 29.173 18.138C28.8854 17.5735 28.4264 17.1146 27.862 16.827C27.2202 16.5 26.3801 16.5 24.7 16.5H22.3C20.6198 16.5 19.7798 16.5 19.138 16.827C18.5735 17.1146 18.1146 17.5735 17.827 18.138Z" fill="#ffbc00"/>
<path d="M17.827 33.138C17.5 33.7797 17.5 34.6199 17.5 36.3V38.7C17.5 40.3801 17.5 41.2203 17.827 41.862C18.1146 42.4265 18.5735 42.8854 19.138 43.173C19.7798 43.5 20.6198 43.5 22.3 43.5H24.7C26.3802 43.5 27.2202 43.5 27.862 43.173C28.4264 42.8854 28.8854 42.4265 29.173 41.862C29.5 41.2203 29.5 40.3801 29.5 38.7V36.3C29.5 34.6199 29.5 33.7797 29.173 33.138C28.8854 32.5735 28.4264 32.1146 27.862 31.827C27.2202 31.5 26.3801 31.5 24.7 31.5H22.3C20.6198 31.5 19.7798 31.5 19.138 31.827C18.5735 32.1146 18.1146 32.5735 17.827 33.138Z" fill="#ffbc00"/>
</svg>
