<svg width="72" height="72" viewBox="0 0 72 72" fill="none" xmlns="http://www.w3.org/2000/svg">
<rect width="72" height="72" rx="10" fill="url(#paint0_linear_1_26)"/>
<g clip-path="url(#clip0_1_26)">
<path d="M33.9181 47.9885H24.64C23.9729 47.9885 23.3426 47.676 22.9456 47.1401L7.41815 26.345C6.38681 24.9646 7.38132 23.0037 9.11249 23.0037H18.3905C19.0576 23.0037 19.6879 23.3163 20.0849 23.8522L35.6082 44.6514C36.6396 46.0318 35.645 47.9927 33.9138 47.9927L33.9181 47.9885Z" fill="white"/>
<path d="M54.1069 47.9885H44.8288C44.1618 47.9885 43.5316 47.6759 43.1346 47.14L27.6112 26.3409C26.5758 24.9605 27.5703 23.0036 29.3015 23.0036H38.5796C39.2507 23.0036 39.881 23.3162 40.278 23.8521L55.8013 44.6513C56.8326 46.0317 55.838 47.9927 54.1069 47.9927V47.9885Z" fill="white"/>
<path d="M52.8954 33.052L47.8901 26.3449C46.8588 24.9605 47.8534 23.0036 49.5845 23.0036H58.8626C59.5296 23.0036 60.16 23.3162 60.557 23.8521L65.5622 30.5592C66.5936 31.9395 65.599 33.9005 63.8678 33.9005H54.5898C53.9227 33.9005 53.2924 33.5879 52.8954 33.052Z" fill="white"/>
</g>
<defs>
<linearGradient id="paint0_linear_1_26" x1="41.1177" y1="95.5166" x2="-9.61083" y2="3.55323" gradientUnits="userSpaceOnUse">
<stop stop-color="#F4BA40"/>
<stop offset="0.493591" stop-color="#EC632B"/>
</linearGradient>
<clipPath id="clip0_1_26">
<rect width="59" height="25" fill="white" transform="translate(7 23)"/>
</clipPath>
</defs>
</svg>
