<svg width="4023" height="738" viewBox="0 0 4023 738" fill="none" xmlns="http://www.w3.org/2000/svg">
<path d="M542.625 731.341H355.788C342.354 731.341 329.662 725.008 321.667 714.152L8.9811 292.876C-11.7877 264.912 8.23935 225.186 43.1013 225.186H229.938C243.372 225.186 256.064 231.519 264.059 242.376L576.662 663.733C597.431 691.698 577.404 731.424 542.542 731.424L542.625 731.341Z" fill="url(#paint0_linear_7_75)"/>
<path d="M949.185 731.341H762.349C748.915 731.341 736.223 725.008 728.228 714.152L415.625 292.794C394.773 264.83 414.8 225.186 449.662 225.186H636.499C650.016 225.186 662.708 231.519 670.702 242.376L983.306 663.733C1004.07 691.698 984.047 731.424 949.185 731.424V731.341Z" fill="url(#paint1_linear_7_75)"/>
<path d="M924.786 428.75L823.991 292.876C803.222 264.83 823.249 225.186 858.111 225.186H1044.95C1058.38 225.186 1071.07 231.519 1079.07 242.376L1179.86 378.25C1200.63 406.214 1180.6 445.94 1145.74 445.94H958.906C945.472 445.94 932.78 439.607 924.786 428.75Z" fill="url(#paint2_linear_7_75)"/>
<path d="M1715.7 226.975H1876.66L1973.66 521.259L2056.65 226.975H2205.58L2051.63 722.849H1900.64L1792.68 402.575L1686.69 722.849H1532.74L1376.8 226.975H1534.8L1617.79 520.272L1715.78 226.975H1715.7Z" fill="#F8FCFF"/>
<path d="M2435.52 722.849H2283.55V226.975H2435.52V722.849Z" fill="#F8FCFF"/>
<path d="M2884.36 226.976V376.667C2870.35 373.377 2854.36 371.65 2836.4 371.65C2802.44 371.65 2774.58 382.589 2752.91 404.549C2731.23 426.51 2720.44 460.396 2720.44 506.29V722.768H2568.46V226.893H2715.41V293.761C2727.44 268.511 2745.74 250.252 2770.38 238.902C2795.02 227.551 2819.66 221.958 2844.39 221.958C2859.72 221.958 2873.07 223.603 2884.36 226.976Z" fill="#F8FCFF"/>
<path d="M3295.28 544.207L3422.28 580.15C3409.59 626.044 3383.3 663.796 3343.33 693.405C3303.36 723.015 3253.33 737.819 3193.33 737.819C3121.38 737.819 3060.23 713.885 3009.87 666.017C2959.52 618.148 2934.38 553.912 2934.38 473.474C2934.38 393.035 2958.86 333.487 3007.9 284.879C3056.85 236.352 3115.04 212.089 3182.37 212.089C3259.68 212.089 3320.5 234.543 3364.84 279.45C3409.18 324.358 3431.35 386.702 3431.35 466.482C3431.35 491.733 3430.36 507.36 3428.38 513.364H3082.48C3083.8 540.67 3095.5 563.453 3117.51 581.712C3139.51 599.971 3165.48 609.183 3195.47 609.183C3246.82 609.183 3280.12 587.552 3295.45 544.372L3295.28 544.207ZM3085.37 415.489H3284.32C3283 392.87 3274.18 373.295 3257.86 356.599C3241.55 339.985 3216.99 331.678 3184.35 331.678C3155.01 331.678 3131.68 340.314 3114.38 357.586C3097.07 374.858 3087.34 394.186 3085.37 415.489Z" fill="#F8FCFF"/>
<path d="M4018.07 0.462891V634.021C4018.07 663.959 4019.39 693.568 4022.03 722.849H3876.07C3873.43 706.893 3872.03 690.936 3872.03 674.98C3860 692.252 3842.19 706.399 3818.54 717.42C3794.89 728.359 3768.35 733.87 3739.09 733.87C3668.46 733.87 3609.78 709.442 3563.13 660.505C3516.49 611.649 3493.16 549.223 3493.16 473.472C3493.16 397.722 3515.83 337.269 3561.16 288.414C3606.48 239.558 3664.09 215.048 3734.15 215.048C3804.2 215.048 3846.81 231.992 3868.07 265.96V0.545125H4018.07V0.462891ZM3678.68 383.575C3657 404.877 3646.21 435.145 3646.21 474.377C3646.21 513.609 3657 544.041 3678.68 565.672C3700.36 587.304 3726.81 598.078 3758.13 598.078C3789.45 598.078 3815.9 587.304 3837.58 565.672C3859.25 544.041 3870.05 513.609 3870.05 474.377C3870.05 435.145 3859.17 404.877 3837.58 383.575C3815.9 362.273 3789.45 351.663 3758.13 351.663C3726.81 351.663 3700.27 362.273 3678.68 383.575Z" fill="#F8FCFF"/>
<defs>
<linearGradient id="paint0_linear_7_75" x1="334.369" y1="896.77" x2="6.33942" y2="210.132" gradientUnits="userSpaceOnUse">
<stop stop-color="#F4BA40"/>
<stop offset="0.493591" stop-color="#EC632B"/>
</linearGradient>
<linearGradient id="paint1_linear_7_75" x1="740.99" y1="896.77" x2="412.979" y2="210.11" gradientUnits="userSpaceOnUse">
<stop stop-color="#F4BA40"/>
<stop offset="0.493591" stop-color="#EC632B"/>
</linearGradient>
<linearGradient id="paint2_linear_7_75" x1="1028.42" y1="518.042" x2="919.856" y2="185.754" gradientUnits="userSpaceOnUse">
<stop stop-color="#F4BA40"/>
<stop offset="0.493591" stop-color="#EC632B"/>
</linearGradient>
</defs>
</svg>
