<svg width="23" height="23" viewBox="0 0 23 23" fill="none" xmlns="http://www.w3.org/2000/svg">
<rect width="23" height="23" rx="11.5" fill="url(#paint0_linear_2_27)"/>
<g clip-path="url(#clip0_2_27)">
<path d="M10.8349 15.3298H7.8711C7.658 15.3298 7.45667 15.2299 7.32985 15.0588L2.36969 8.41588C2.04023 7.97493 2.35792 7.34851 2.91094 7.34851H5.87475C6.08785 7.34851 6.28918 7.44837 6.416 7.61957L11.3749 14.2638C11.7043 14.7047 11.3866 15.3311 10.8336 15.3311L10.8349 15.3298Z" fill="white"/>
<path d="M17.2841 15.3297H14.3203C14.1072 15.3297 13.9059 15.2298 13.7791 15.0586L8.82025 8.41445C8.48948 7.97349 8.80717 7.34837 9.36021 7.34837H12.324C12.5384 7.34837 12.7398 7.44824 12.8666 7.61943L17.8254 14.2636C18.1549 14.7046 17.8371 15.331 17.2841 15.331V15.3297Z" fill="white"/>
<path d="M16.8972 10.5583L15.2982 8.41574C14.9688 7.97349 15.2865 7.34837 15.8395 7.34837H18.8033C19.0164 7.34837 19.2178 7.44824 19.3446 7.61943L20.9435 9.76196C21.273 10.2029 20.9552 10.8293 20.4022 10.8293H17.4384C17.2253 10.8293 17.024 10.7295 16.8972 10.5583Z" fill="white"/>
</g>
<defs>
<linearGradient id="paint0_linear_2_27" x1="13.1348" y1="30.5122" x2="-3.07013" y2="1.13506" gradientUnits="userSpaceOnUse">
<stop stop-color="#F4BA40"/>
<stop offset="0.493591" stop-color="#EC632B"/>
</linearGradient>
<clipPath id="clip0_2_27">
<rect width="18.8472" height="7.98611" fill="white" transform="translate(2.23611 7.34723)"/>
</clipPath>
</defs>
</svg>
