<svg width="61" height="61" viewBox="0 0 61 61" fill="none" xmlns="http://www.w3.org/2000/svg">
<circle cx="30.5" cy="30.5" r="30.5" fill="#252A34"/>
<path fill-rule="evenodd" clip-rule="evenodd" d="M46 30C46 38.2842 39.2842 45 31 45C22.7157 45 16 38.2842 16 30C16 21.7157 22.7157 15 31 15C39.2842 15 46 21.7157 46 30ZM29.5 19.5C29.5 18.6716 30.1715 18 31 18C37.6275 18 43 23.3726 43 30C43 36.6275 37.6275 42 31 42C24.3726 42 19 36.6275 19 30C19 27.4524 19.7956 25.0862 21.1518 23.1418C21.6257 22.4624 22.5607 22.2958 23.2402 22.7697C23.9196 23.2437 24.0863 24.1787 23.6123 24.8581C22.5959 26.3153 22 28.0858 22 30C22 34.9706 26.0294 39 31 39C35.9706 39 40 34.9706 40 30C40 25.0294 35.9706 21 31 21C30.1715 21 29.5 20.3284 29.5 19.5ZM31 24C30.1715 24 29.5 24.6716 29.5 25.5C29.5 26.3284 30.1715 27 31 27C32.6569 27 34 28.3431 34 30C34 30.8285 34.6716 31.5 35.5 31.5C36.3284 31.5 37 30.8285 37 30C37 26.6863 34.3137 24 31 24Z" fill="#ffbc00"/>
</svg>
